<svg width="173" height="33" xmlns="http://www.w3.org/2000/svg">
 <g id="Layer_1">
  <title>Layer 1</title>
  <text style="cursor: move;" xml:space="preserve" text-anchor="start" font-family="Noto Sans JP" font-size="24" id="svg_1" y="25.33333" x="53.05393" stroke-width="0" stroke="#000" fill="#000000">下班啦</text>
  <path id="svg_4" d="m4.28432,32.77365c-2.20699,-0.295 -2.96803,-2.35584 -1.65223,-3.59051c1.74623,-1.9095 5.4816,-3.19674 8.4083,-1.99189c0.05833,-6.72411 0.02466,-13.44859 0.03359,-20.17286c7.29756,-1.08817 14.6109,-2.12037 21.91122,-3.19907c-0.01581,7.53624 -0.03162,15.07248 -0.04743,22.60872c-1.14367,2.27941 -4.83914,3.86004 -8.05696,3.15324c-1.91573,-0.42386 -2.375,-2.25157 -1.30824,-3.37143c1.46082,-1.67049 4.17977,-2.81742 6.91319,-2.50452c0.78004,-0.05832 1.92871,0.87511 1.59901,-0.18084c0,-5.28249 0,-10.56499 0,-15.84748c-6.69885,0.99673 -13.41095,1.94612 -20.1129,2.93206c-0.02288,6.14722 0.05695,12.29537 -0.05971,18.44184c-0.21326,1.86697 -2.63782,3.14072 -4.90111,3.63838c-0.89411,0.11144 -1.82508,0.1806 -2.72674,0.08437l0,0zm17.47464,-25.06212c3.44189,-0.50065 6.88541,-0.99528 10.32582,-1.50148c0.43784,-1.28924 -1.52162,-0.45197 -2.47989,-0.4205c-5.87684,0.85747 -11.75707,1.70224 -17.633,2.56304c-0.43784,1.28924 1.52162,0.45197 2.47989,0.4205c2.43548,-0.35478 4.87129,-0.70835 7.30718,-1.06157l0,0z" stroke-width="0" stroke="#000" fill="#000000"/>
 </g>
</svg>