<svg width="173" height="33" xmlns="http://www.w3.org/2000/svg">
 <g id="Layer_1">
  <title>Layer 1</title>
  <text xml:space="preserve" text-anchor="start" font-family="Noto Sans JP" font-size="24" id="svg_1" y="25.33333" x="53.05393" stroke-width="0" stroke="#000" fill="#000000">上班摸鱼中</text>
  <path stroke="#000" id="svg_2" d="m12.65322,26.19901l15.87134,0c2.28775,-0.00502 3.84847,-2.28794 3.84085,-4.63656l0,-1.5792c4.52944,-0.00422 7.81563,-4.03891 7.81394,-8.74356c0.00169,-4.78843 -3.21998,-8.72247 -6.96991,-8.71906l-24.46378,0l0,19.04222c0.00356,2.58586 1.88072,4.63153 3.90756,4.63615zm19.71169,-20.0965l0,0l0.84402,0c3.10316,-0.00583 4.09854,3.47621 4.08365,5.16329c0.00305,2.72408 -1.69736,5.33666 -4.92767,5.08314l0,-10.24643zm-32.36491,21.25604c0.00288,3.5198 2.26438,5.15204 4.08466,5.16209l32.83136,0c2.17126,-0.01004 4.07433,-2.03562 4.08398,-5.16209l-41.00001,0z" stroke-width="0" fill="#000000"/>
 </g>
</svg>